<?xml version="1.0" encoding="UTF-8" standalone="no"?>
<svg xmlns="http://www.w3.org/2000/svg" viewBox="0 0 100 100">
  <path fill="#788490" d="M64.554 76.157c-.26-.188-.403-.454-.507-.75-.081-.232-.166-.465-.324-.661a.347.347 0 0 0-.388-.126c-.15.046-.08.194-.077.291.011.387-.063.78.074 1.17h-.46a59.57 59.57 0 0 0 .003-3.187c.306-.025.659-.038 1.013.035.487.1.77.36.788.74.02.384-.222.681-.684.84-.065.023-.131.043-.219.07.57.415.695 1.145 1.214 1.579h-.433zm-1.3-2.416c0 .184.005.369-.001.553-.005.127.037.179.174.185.46.02.8-.255.852-.706.048-.414-.185-.675-.664-.759-.243-.042-.403-.01-.363.296.017.142.002.287.002.43z"/>
  <path fill="#798490" d="M89.128 76.157c-.252-.414-.61-.74-.923-1.102-.516-.596-1.043-1.18-1.622-1.832.041 1.001-.06 1.929.107 2.86h-.341c.097-.093.117-.212.117-.34l.008-2.474c0-.123.003-.25-.126-.36.277-.046.473.003.648.207.592.688 1.198 1.362 1.8 2.04.092.105.19.204.305.326 0-.802.021-1.56-.013-2.316-.01-.226.04-.27.225-.26-.124 1.08-.035 2.167-.062 3.251zM52.731 76.157c-.252-.414-.61-.74-.924-1.102-.515-.596-1.042-1.18-1.619-1.83.03 1-.043 1.926.089 2.858h-.325c.097-.093.117-.212.117-.34l.008-2.474c0-.123.003-.25-.126-.36.277-.046.473.003.648.207.592.688 1.198 1.362 1.8 2.04.092.105.19.204.305.326 0-.802.006-1.56-.004-2.317-.003-.222-.025-.222.216-.261-.124 1.082-.035 2.169-.061 3.253z"/>
  <path fill="#788490" d="M56.445 76.157c-.032-.084-.119-.072-.18-.096-.83-.31-1.274-.98-1.172-1.772.106-.816.733-1.395 1.618-1.461.514-.04 1.004.054 1.4.427-.015.098.043.207-.047.292-.348-.49-.894-.693-1.488-.553-.56.132-.94.57-1.045 1.202-.148.895.348 1.666 1.172 1.806.357.061.694-.025 1.015-.181.062-.03.147-.055.144-.143-.012-.315.065-.635-.053-.944.163.033.342-.057.494.061-.015.07-.039.139-.042.208-.03.617-.211.854-.8 1.06-.071.025-.171-.004-.212.094h-.804zM17.572 76.157c-.03-.082-.115-.086-.178-.104-.332-.093-.447-.32-.424-.68.079.106.135.19.2.266.277.325.718.457 1.087.329a.646.646 0 0 0 .227-1.113 1.631 1.631 0 0 0-.423-.251c-.216-.099-.435-.192-.642-.304-.29-.156-.442-.402-.396-.738a.785.785 0 0 1 .56-.675c.325-.11.65-.092.972.022.198.07.316.188.25.442-.192-.138-.336-.329-.58-.37a1.016 1.016 0 0 0-.487.012c-.215.066-.367.192-.406.42-.04.24.053.435.265.545.32.165.66.291.973.468.623.354.66 1.145.082 1.525-.125.082-.266.139-.4.207h-.68zM10.332 75.536c.298.349.644.577 1.131.442a.65.65 0 0 0 .495-.533c.058-.28-.069-.483-.281-.636-.133-.095-.286-.16-.433-.234-.1-.05-.208-.09-.31-.136-.558-.258-.752-.556-.639-.978.116-.433.517-.68 1.067-.641.152.01.304.05.451.094.204.062.31.193.24.442-.185-.151-.337-.332-.583-.378a.976.976 0 0 0-.516.025c-.2.07-.338.2-.371.414-.035.226.054.4.243.529.24.164.52.246.782.364.4.18.714.434.698.918-.016.491-.315.758-.766.883-.015.004-.023.03-.035.046h-.68c-.095-.113-.247-.116-.364-.187-.118-.071-.22-.141-.2-.3.012-.05.014-.107.07-.134zM6.739 76.157c-.095-.113-.246-.116-.363-.187-.118-.071-.22-.141-.2-.3.012-.05.014-.106.07-.134.299.349.645.577 1.132.442a.65.65 0 0 0 .495-.533c.058-.28-.069-.483-.281-.636-.133-.095-.286-.16-.433-.234-.101-.05-.208-.09-.31-.136-.558-.258-.752-.556-.64-.978.117-.433.517-.68 1.068-.641.152.01.307.045.45.095.237.083.256.13.245.444-.188-.155-.34-.335-.586-.382a.976.976 0 0 0-.517.025c-.2.07-.338.2-.37.414-.036.226.053.401.242.53.241.163.52.245.782.363.4.181.714.434.698.918-.015.492-.315.758-.766.884-.015.004-.023.03-.035.046H6.74zM70.87 75.536c.299.349.645.577 1.132.442a.65.65 0 0 0 .495-.533c.058-.28-.069-.483-.282-.636-.132-.095-.285-.16-.432-.234-.101-.05-.208-.09-.31-.136-.558-.258-.752-.556-.64-.978.117-.433.517-.68 1.068-.641.152.01.304.05.45.094.205.062.311.193.24.442-.184-.151-.336-.332-.582-.378a.976.976 0 0 0-.516.025c-.2.07-.338.2-.371.414-.036.226.054.4.242.529.241.164.52.246.782.364.401.18.714.434.699.918-.016.491-.315.758-.767.883-.014.004-.023.03-.034.046h-.681c-.095-.113-.246-.116-.364-.187-.117-.071-.22-.141-.199-.3.012-.05.014-.107.07-.134zM92.842 76.157c-.032-.084-.119-.072-.181-.096-.831-.31-1.276-.984-1.17-1.778.11-.818.744-1.388 1.629-1.46.355-.028.696.037 1.024.177.276.12.457.297.404.63-.665-.758-1.502-.9-2.129-.363-.61.524-.686 1.638-.155 2.277.555.666 1.397.632 2.284-.099.053.205-.081.302-.213.398-.208.15-.46.205-.688.314z"/>
  <path fill="#798591" d="M43.94 76.157c-.496-1.093-.971-2.197-1.544-3.26.184.02.393.042.69-.057-.15.156-.151.253-.101.36.366.792.73 1.587 1.094 2.38.124-.028.128-.137.16-.214.323-.788.755-1.53 1-2.351.054-.18.222-.033.306-.13-.566 1.075-1.048 2.177-1.542 3.272z"/>
  <path fill="#43515e" d="M48.068 23.851c6.407 0 12.813.002 19.22-.007.293 0 .37.062.369.365-.013 3.425-.012 6.85 0 10.274 0 .282-.078.343-.341.33-.474-.022-.95-.018-1.423 0-.226.008-.294-.046-.294-.284.008-2.6.003-5.2 0-7.799 0-.216-.004-.433.002-.65.004-.131-.04-.192-.177-.18-.072.007-.145.001-.217.001-11.348 0-22.695.001-34.043-.006-.307 0-.411.054-.41.393.01 9.913.01 19.827 0 29.741 0 .322.088.381.391.381 11.358-.008 22.716-.008 34.074.001.31 0 .39-.068.389-.384-.014-3.095-.009-6.19-.008-9.285 0-.42.003-.42.428-.42.423 0 .847.023 1.268-.009.315-.024.36.09.36.375-.012 3.054-.007 6.107-.007 9.16 0 .816-.01 1.63.005 2.445.004.23-.051.29-.286.29-2.692-.01-5.385-.006-8.078-.006-10.15 0-20.302-.002-30.453.008-.318 0-.379-.084-.378-.387.008-11.316.008-22.633 0-33.95 0-.308.056-.407.39-.406 6.407.013 12.813.01 19.22.01zm-.01 33.61c6.034 0 12.07-.003 18.104.008.325 0 .378-.092.377-.39-.01-3.353-.007-6.706-.007-10.058v-.217c.001-.077-.04-.098-.111-.114-.347-.072-.444-.002-.444.339 0 3.156-.002 6.313.006 9.47 0 .23-.054.288-.287.288-11.678-.006-23.355-.006-35.033 0-.236 0-.284-.065-.284-.29.006-10.234.006-20.467 0-30.7 0-.245.077-.28.295-.28 11.667.005 23.334.005 35.001 0 .234 0 .31.046.309.298-.012 2.3-.007 4.6-.007 6.901 0 .495-.001.99.002 1.485 0 .077-.044.199.051.22.138.03.295.038.429.001.142-.04.07-.194.07-.294.004-2.94-.001-5.88.01-8.82.002-.292-.085-.347-.356-.347-12.08.007-24.16.007-36.24-.001-.298 0-.37.068-.369.367.009 10.594.009 21.19.002 31.783 0 .273.055.358.347.357 6.045-.008 12.09-.006 18.135-.006z"/>
  <path fill="#77838f" d="M48.276 38.279c1.461-.02 2.638 1.106 2.65 2.568.003.302.105.346.367.342a89.941 89.941 0 0 1 2.63 0c.218.003.301-.036.3-.282-.011-2.682-.007-5.363-.012-8.044a6.9 6.9 0 0 0-.18-1.655c-.216-.87-.746-1.304-1.647-1.355-.061-.003-.123-.005-.185-.01-.045-.005-.074-.032-.079-.079-.007-.068.036-.089.093-.09.072-.003.144-.004.217-.004h6.466c.02 0 .042-.004.062.001.088.025.245-.067.256.077.012.157-.15.086-.238.103-.09.017-.186.011-.277.028-.855.162-1.295.658-1.442 1.655a8.521 8.521 0 0 0-.114 1.199c-.011 2.815-.008 5.63-.01 8.446v.443c.002 2.795-.005 5.59.012 8.384.003.542.048 1.09.208 1.62.247.817.742 1.21 1.59 1.263.095.006.278-.068.268.1-.01.15-.186.076-.284.076-2.175.005-4.351.005-6.527 0-.093 0-.267.08-.27-.088-.004-.142.161-.083.251-.088.916-.056 1.434-.487 1.655-1.385.122-.493.169-.997.17-1.501.01-2.712.005-5.424.015-8.136 0-.212-.069-.255-.263-.253-.938.008-1.877.01-2.815-.002-.205-.002-.277.067-.332.256-.276.934-.822 1.627-1.791 1.919l-.126-.059c.699-.444.923-1.15 1.05-1.909.03-.176-.054-.206-.206-.204-.474.007-.948.003-1.422.003h-1.823c-.099 0-.226-.025-.19.149.187.873.486 1.668 1.41 2.03l-.136.06c-1.049-.127-1.937-.917-2.195-1.989-.051-.211-.135-.255-.33-.254-1.144.008-2.288.011-3.433-.002-.242-.003-.285.076-.284.297.008 2.6.005 5.198.008 7.797 0 .598.033 1.194.174 1.78.221.92.73 1.347 1.67 1.4.061.004.124.005.185.014.045.007.067.044.065.09 0 .049-.033.072-.078.074a3.902 3.902 0 0 1-.216.005h-6.528c-.041 0-.083.004-.124-.001-.064-.008-.163.027-.156-.09.006-.103.099-.082.167-.088.113-.01.227-.007.339-.026.865-.154 1.312-.665 1.462-1.672.078-.52.121-1.045.121-1.57.003-5.497.004-10.994 0-16.49-.001-.608-.038-1.215-.17-1.812-.222-.99-.693-1.393-1.708-1.47-.08-.006-.218.045-.207-.105.008-.12.13-.071.201-.071 2.228-.003 4.455-.003 6.683 0 .072 0 .181-.05.208.065.025.105-.068.1-.139.111-1.353.212-1.794.713-1.896 2.091-.049.66-.056 1.318-.057 1.978 0 2.33.003 4.661-.005 6.992 0 .213.046.281.268.28 1.134-.012 2.27-.012 3.403 0 .221.001.293-.046.305-.284.061-1.216.905-2.245 2.029-2.512l.066.064c-1.019.495-1.196 1.783-1.174 2.575.004.128.07.151.178.151h3.395c.121 0 .194-.022.182-.17-.057-.73-.222-1.423-.674-2.018-.264-.346-.597-.593-1.038-.668l.002-.05z"/>
  <path fill="#c0d4c8" d="M57.134 41.622v-.444c.639.002 1.277-.003 1.915.01.226.003.33-.074.306-.304-.002-.02 0-.041 0-.062-.005-.146-.011-.336.107-.396.134-.069.202.13.299.21.13.11.228.255.448.194.21-.059.218-.227.258-.379.107-.406.244-.808.187-1.24-.01-.07-.013-.173.052-.198.266-.106.42-.31.55-.55.048-.09.13-.048.157.037.06.192.18.355.175.58-.008.365-.05.737.1 1.096.137.328.557.477.806.224.492-.498.942-1.033 1.025-1.774.002-.02.024-.046.017-.057-.235-.38.126-.625.208-.933.039-.144.105-.173.206-.056.321.37.493.364.994-.063.248-.21.471-.431.776-.56.316-.135.56-.378.817-.598.049 0 .094.008.12.057-.19.243-.388.478-.56.73-.081.117-.244.254.004.405.12.073-.03.155-.081.21-.298.313-.58.635-.796 1.014-.114.202-.197.402-.032.595.188.22.442.281.724.195.585-.18 1.065-.535 1.483-.96.568-.58 1.191-1.095 1.797-1.631.05.003.097.011.124.061-.25.363-.446.757-.6 1.167-.078.209.11.365.359.304.29-.071.563-.196.826-.34.105-.056.2-.186.345-.035.054.057.155-.024.224-.064a.935.935 0 0 1 .551-.15c-.154.277-.422.41-.639.596-.124.107-.247.216-.366.329-.083.078-.13.196-.048.275.223.216.02.236-.118.285-.377.134-.795.109-1.162.289-.082.04-.172.068-.254.11-.12.06-.275.13-.264.271.014.165.178.26.329.286.398.068.775.3 1.205.16.077-.025.175.023.255.085-.102.195-.292.254-.471.327-.23.092-.458.185-.656.337-.146.111-.31.063-.465.043-.684-.088-1.368-.151-2.058-.127-.223.007-.434-.068-.67-.023-.334.064-.495.279-.557.545-.06.247.07.475.31.616.507.296 1.014.59 1.575.77.167.053.28.074.277.329-.004.33.334.494.55.708.125.124.407.224.307.395-.102.176-.324-.03-.491-.077-.277-.075-.552-.158-.831-.225-.097-.023-.25-.035-.271.08-.055.29-.2.148-.317.08-.266-.153-.52-.326-.786-.479-.485-.28-.821-.092-.857.465-.01.141-.044.28-.076.475-.353-.317-.75-.553-.839-1.013-.125-.653-.497-1.169-.986-1.536-.314-.237-.734-.504-1.223-.33-.195.069-.234.148-.167.338.176.496.415.964.668 1.422.187.336.092.696.142 1.042.018.126-.07.137-.154.057-.074-.07-.151-.144-.203-.23-.086-.141-.23-.28-.353-.278-.39.006-.433-.299-.586-.53-.327-.493-.61-1.018-1.065-1.42-.203-.18-.439-.347-.489-.654-.02-.128-.144-.092-.23-.092-.62-.001-1.238.002-1.857.004z"/>
  <path fill="#43515e" d="M4.577 64.34a.573.573 0 0 0-.12.374c-.001.65-.001 1.3-.012 1.95-.002.156.035.213.204.212 1.073-.008 2.146-.008 3.218 0 .175 0 .232-.047.228-.225-.016-.619-.013-1.238-.022-1.856-.003-.22-.01-.44-.257-.564.406.041.794.041 1.2 0-.224.127-.235.329-.239.542a133.418 133.418 0 0 0 0 4.704c.004.203.028.388.275.531H7.83c.302-.281.246-.615.252-.93.01-.578 0-1.156.013-1.733.004-.178-.053-.227-.228-.226a246.64 246.64 0 0 1-3.218 0c-.17-.001-.205.06-.203.214.01.722.013 1.444.011 2.166 0 .198.069.356.246.505H3.51c.29-.212.263-.479.263-.74-.002-1.476-.004-2.95 0-4.426 0-.234-.006-.455-.289-.615l.707.041c.122.056.276-.047.385.075zM70.764 70.152c-1.78-.004-3.106-1.301-3.105-3.035.002-1.746 1.336-3.034 3.141-3.03 1.778.003 3.101 1.299 3.1 3.035 0 1.748-1.333 3.035-3.136 3.03zm2.396-3.041c0-.46-.073-.906-.262-1.325-.404-.898-1.096-1.423-2.09-1.433-.976-.01-1.697.47-2.108 1.355-.437.938-.435 1.904.007 2.84.41.868 1.125 1.343 2.088 1.337.965-.005 1.655-.497 2.07-1.366.214-.444.293-.918.295-1.408zM21.722 67.253c.47.254.723.631.965 1.015.247.392.473.797.726 1.184.141.216.31.42.62.407-.316.281-.863.223-1.206-.124-.229-.232-.363-.522-.49-.816-.17-.397-.302-.81-.52-1.186-.174-.3-.413-.477-.782-.437-.117.013-.188.024-.185.17.012.7.015 1.402.023 2.103.002.17.079.309.244.434h-1.23c.295-.194.29-.435.289-.68-.003-1.525-.003-3.05-.003-4.576 0-.185.01-.373-.258-.517.83-.01 1.57-.09 2.296.113 1.049.294 1.493 1.228.98 2.06-.228.369-.58.575-.98.711-.143.048-.293.083-.49.139zm-.857-1.491h-.013v.68c0 .67 0 .67.678.562.736-.117 1.127-.564 1.14-1.304.013-.7-.297-1.054-1.062-1.2-.161-.032-.328-.03-.49-.052-.185-.026-.263.034-.256.232.012.36.003.721.003 1.082zM90.05 64.316c-.804.439-1.412 1.123-2.114 1.69-.184.148-.355.313-.537.462-.104.085-.105.142-.009.24.923.937 1.838 1.883 2.765 2.817.15.15.345.256.52.383-.431.095-.862.074-1.294.008.116-.127.043-.23-.047-.322-.806-.827-1.615-1.65-2.418-2.479-.094-.096-.152-.09-.253-.01-.207.166-.348.332-.33.637.035.554.017 1.112.016 1.669 0 .22.012.432.28.593h-1.24c.29-.196.277-.439.277-.683-.003-1.494-.002-2.99-.002-4.484 0-.229.019-.462-.247-.6.406.025.782.044 1.257-.046-.278.182-.328.375-.326.601.007.752.003 1.504.003 2.257.094.026.128-.056.175-.1.795-.734 1.59-1.468 2.378-2.21.129-.12.312-.223.28-.447-.016-.128.073-.063.113-.062.206.007.411.02.617.032l.136.054zM52.416 67.554c-.206.298-.12.637-.109.955.012.319-.099.545-.314.762-1.034 1.05-2.868 1.186-4.16.298-1.184-.813-1.603-2.407-.985-3.744.558-1.205 1.992-1.926 3.41-1.716.389.057.764.155 1.123.322.502.233.851.549.695 1.175-.046.017-.067-.032-.092-.077-.527-.931-1.38-1.244-2.38-1.168-1.052.08-1.745.688-2.08 1.678-.311.922-.256 1.834.242 2.684.714 1.217 2.509 1.57 3.672.741.058-.041.125-.074.124-.161-.005-.526-.008-1.052-.016-1.577 0-.037-.036-.073-.056-.108.3-.138.618-.022.926-.064zM96.872 65.304c-.561-.822-1.125-1.083-1.871-.914-.406.092-.697.32-.786.738-.09.425.063.769.418 1.021.289.205.619.326.937.47.253.114.514.217.754.353.702.396 1.018 1.026.897 1.747-.115.687-.637 1.2-1.385 1.37a2.579 2.579 0 0 1-1.283-.042c-.812-.228-.978-.436-1.021-1.307.144.035.162.174.224.264.486.71 1.247 1.04 1.968.84.468-.129.776-.43.876-.904.099-.47-.03-.877-.416-1.188-.31-.249-.673-.396-1.03-.556-.29-.132-.584-.255-.854-.43-.465-.299-.704-.713-.648-1.274.055-.555.315-.982.83-1.213.648-.291 1.3-.243 1.954.005.472.178.411.57.436 1.02zM38.003 69.912c.181-.116.285-.29.38-.476.839-1.63 1.612-3.29 2.37-4.958.044-.095.042-.258.181-.256.138.001.135.163.18.259a146.053 146.053 0 0 0 2.215 4.656c.15.3.28.615.57.843h-1.393c.337-.155.298-.335.204-.535a45.276 45.276 0 0 1-.513-1.124c-.053-.12-.126-.163-.26-.162-.814.006-1.629.006-2.444 0-.141 0-.225.037-.282.177-.161.4-.336.796-.506 1.193-.056.132-.069.259.04.373-.246.103-.493.084-.742.01zm2.69-4.8L39.4 67.924c.833 0 1.623-.002 2.413.002.166.001.162-.058.104-.182-.405-.864-.805-1.729-1.224-2.632zM76.629 69.912c.181-.116.285-.29.38-.476.839-1.63 1.612-3.29 2.37-4.958.044-.095.042-.258.182-.256.137.001.134.163.178.259a143.388 143.388 0 0 0 2.216 4.655c.15.3.276.618.57.844h-1.393c.338-.155.299-.335.204-.535a45.28 45.28 0 0 1-.513-1.124c-.053-.12-.126-.163-.259-.162-.815.006-1.63.006-2.445 0-.141 0-.225.037-.282.177-.16.4-.336.796-.506 1.193-.056.132-.069.259.04.373-.246.103-.494.084-.742.01zm1.402-2.002h2.586l-1.299-2.798-1.287 2.798zM15.644 67.311c-.5-.219-1.032-.157-1.554-.175-.48-.017-.481-.006-.48.483.002.63.004 1.258.008 1.887.001.118-.033.258.166.26.826.008 1.651.01 2.445-.265.17-.059.33-.15.55-.252-.113.247-.204.436-.29.629-.058.133-.173.086-.268.087-.99.003-1.98.002-2.97.003h-.616c.293-.143.3-.355.299-.578a1165.06 1165.06 0 0 1 0-4.578c0-.222.002-.439-.245-.568 1.061.07 2.097.021 3.133.02.262 0 .406.065.43.333.01.118.117.22.066.369-.76-.548-1.632-.511-2.498-.506-.172.001-.202.079-.201.228.002.68-.005 1.36-.006 2.041 0 .082-.043.207.113.201.644-.024 1.299.053 1.923-.185a.556.556 0 0 1-.005.566zM59.098 67.311c-.5-.219-1.032-.157-1.553-.175-.48-.017-.482-.006-.48.483 0 .63.003 1.258.007 1.887.001.118-.033.258.166.26.826.008 1.651.01 2.445-.265.17-.059.329-.15.55-.252-.113.247-.204.436-.29.629-.058.133-.173.086-.267.087-.99.003-1.98.002-2.97.003h-.617c.293-.143.3-.355.299-.578-.004-1.526-.003-3.052 0-4.578 0-.222.002-.439-.244-.568 1.06.07 2.096.021 3.132.02.262 0 .407.065.43.333.01.118.117.22.066.369-.76-.548-1.632-.511-2.498-.506-.172.001-.202.079-.201.228.002.68-.005 1.36-.006 2.041 0 .082-.043.207.113.201.644-.024 1.3.053 1.923-.185a.558.558 0 0 1-.005.566zM34.493 69.999h-1.252c.32-.195.304-.442.304-.688.001-1.526 0-3.052.012-4.578.002-.225-.07-.28-.28-.265-.641.044-1.268.134-1.855.523-.001-.258.116-.442.16-.642.026-.11.134-.076.21-.076 1.392-.001 2.784 0 4.176-.003.137 0 .23.014.259.181.027.16.096.312.145.464-.068.076-.117.016-.165-.014-.545-.341-1.156-.404-1.779-.434-.167-.008-.209.049-.208.208.008 1.609.01 3.217.01 4.825 0 .21.08.37.263.499zM27.612 64.262l.77-.036c-.288.157-.291.38-.291.613.004 1.536.004 3.072 0 4.608 0 .212.015.41.287.558h-1.232c.286-.23.266-.506.266-.776l-.004-4.392c0-.176 0-.352-.123-.497.088-.114.224-.027.327-.078z"/>
  <path fill="#788490" d="M77.668 72.89c.38-.015.8-.032 1.22.038.84.14 1.311.658 1.326 1.48.015.84-.495 1.466-1.31 1.624-.418.081-.838.06-1.234.06a62.42 62.42 0 0 0-.002-3.202zm.38 1.596c0 .422-.001.844.002 1.267 0 .096-.034.22.13.226.5.016.996-.044 1.313-.47.414-.558.44-1.197.153-1.815-.263-.567-.799-.69-1.374-.706-.177-.005-.231.058-.227.231.01.422.003.844.003 1.267zM29.325 76.092a62.22 62.22 0 0 0 0-3.197c.436-.036.923-.047 1.403.072.769.191 1.165.73 1.142 1.537-.022.79-.531 1.377-1.312 1.528-.419.082-.839.06-1.233.06zm.38-1.622v1.298c0 .105-.013.21.146.213.49.01.974-.048 1.288-.46.422-.554.45-1.192.17-1.813-.265-.584-.81-.708-1.396-.72-.162-.003-.215.055-.211.215.008.422.002.845.002 1.267z"/>
  <path fill="#798490" d="M96.747 72.934l1.39.004c.295.002.295.002.323.364-.393-.264-.825-.25-1.256-.252-.159 0-.22.052-.216.214.009.32.01.639-.001.958-.006.17.063.21.217.204.315-.01.631.01.938-.098a.499.499 0 0 1 .006.3c-.077-.023-.15-.05-.225-.065-.853-.162-.932-.096-.932.757 0 .681 0 .674.689.656.34-.008.66-.106 1.026-.21-.074.176-.076.333-.295.33-.617-.006-1.233-.002-1.802-.002.03-1.038.032-2.06-.003-3.083.029-.056.085-.066.141-.077zM82.572 72.934l1.39.004c.295.002.295.002.323.364-.393-.264-.826-.25-1.257-.252-.158 0-.22.052-.216.214.01.32.011.639 0 .958-.007.17.062.21.216.204.315-.01.632.01.938-.098a.499.499 0 0 1 .006.3c-.076-.023-.15-.05-.224-.065-.853-.162-.933-.096-.933.757 0 .681 0 .674.69.656.34-.008.659-.106 1.026-.21-.074.176-.076.333-.295.33-.617-.006-1.234-.002-1.803-.002.03-1.038.033-2.06-.003-3.083.03-.056.086-.066.141-.077zM67.035 72.934l1.39.004c.295.002.295.002.323.364-.393-.264-.825-.25-1.257-.252-.158 0-.22.052-.216.214.01.32.011.639 0 .958-.007.17.062.21.217.204.315-.01.631.01.938-.098a.499.499 0 0 1 .006.3c-.077-.023-.15-.05-.225-.065-.853-.162-.933-.096-.933.757 0 .681 0 .674.69.656.34-.008.66-.106 1.026-.21-.073.176-.075.333-.295.33-.617-.006-1.233-.002-1.802-.002.03-1.038.033-2.06-.003-3.083.029-.056.085-.066.14-.077zM25.438 72.934c.463.002.927.017 1.39-.001.266-.011.346.099.326.372-.397-.267-.828-.253-1.26-.255-.158 0-.22.052-.216.214.009.32.011.639-.001.958-.006.17.063.212.217.204.315-.015.633.019.936-.103a.506.506 0 0 1 .008.306c-.077-.023-.15-.051-.225-.065-.853-.162-.933-.097-.933.756 0 .682 0 .684.689.652a3.54 3.54 0 0 0 .52-.064c.156-.03.308-.085.507-.142-.074.177-.076.334-.295.332-.617-.007-1.234-.003-1.803-.003.03-1.038.033-2.06-.003-3.083.03-.057.087-.067.143-.078z"/>
  <path fill="#788490" d="M4.51 76.108l-.557.001c.014-.35-.193-.62-.328-.917-.05-.108-.152-.087-.242-.087-.39 0-.78.006-1.17-.003-.144-.003-.236.036-.276.179-.072.263-.34.473-.21.81h-.433c.396-.459.589-1.03.852-1.561.268-.54.505-1.096.782-1.702.148.32.269.588.395.853.317.668.645 1.332.951 2.005.068.15.24.237.237.422zm-.995-1.143l-.72-1.576-.713 1.576zM22.299 76.08h-.542a.787.787 0 0 0 .087-.409c-.003-.794-.007-1.588.002-2.382.003-.194-.06-.245-.247-.24-.322.012-.618.11-.919.249 0-.275.102-.374.37-.366.65.02 1.3.019 1.949 0 .262-.007.378.081.377.366a2.15 2.15 0 0 0-.913-.248c-.179-.005-.256.033-.254.234.01.815.007 1.63.002 2.444 0 .124.044.231.088.353z"/>
  <path fill="#798591" d="M36.889 72.892a.778.778 0 0 0-.068.285c.002.855.005 1.71-.004 2.564-.002.19.057.246.246.244.462-.003.92-.017 1.36-.252-.028.268-.127.379-.394.368-.544-.021-1.09-.006-1.604-.006.043-1.067.034-2.122.008-3.199.105 0 .278.061.456-.004zM14.456 72.897c.118.016.288.046.399-.002a62.28 62.28 0 0 0 .002 3.184h-.403a49.76 49.76 0 0 0 .002-3.182zM40.273 72.895a.898.898 0 0 0 .396.002 60.49 60.49 0 0 0 0 3.181h-.402a56.44 56.44 0 0 0 .006-3.183zM47.33 76.08c.107-.332.107-2.871-.002-3.194.178.038.347.034.457.013a58.381 58.381 0 0 0 .005 3.18zM75.394 76.079h-.397c.03-1.057.026-2.113.001-3.18.113.022.283.023.396 0a62.134 62.134 0 0 0 0 3.18z"/>
  <path fill="#5f6b76" d="M89.381 69.916c.432.067.863.088 1.293-.008l.248.104c-.567 0-1.048 0-1.528-.003-.017 0-.037-.034-.05-.056-.002-.003.024-.024.037-.037z"/>
  <path fill="#76808a" d="M76.629 69.912c.248.074.496.093.742-.011l.206.116c-.384 0-.689.019-.99-.01-.098-.01-.014-.077.042-.095z"/>
  <path fill="#5b6773" d="M52.416 67.554c-.308.042-.625-.074-.925.064l-.156-.083c.363.005.724-.097 1.08.019z"/>
  <path fill="#76808a" d="M38.003 69.912c.249.074.496.093.742-.011l.206.116c-.384 0-.689.019-.99-.01-.098-.01-.013-.077.042-.095z"/>
  <path fill="#5f6b76" d="M15.644 67.311a.553.553 0 0 0 .003-.567l.123-.216c0 .295.004.522-.002.748-.003.116-.057.116-.124.035zM59.098 67.311a.553.553 0 0 0 .003-.567l.123-.216c0 .295.004.522-.002.748-.003.116-.057.116-.124.035z"/>
  <path fill="#a5adb5" d="M48.782 43.854c-.246.108-.504.039-.756.05l-.001-.05c.23-.004.46-.006.685-.06l.072.06z"/>
  <path fill="#c1c7cc" d="M58.303 74.796c-.152-.119-.33-.028-.493-.062.177-.121.372-.053.556-.037.043.003-.028.07-.063.099z"/>
  <path fill="#98a1aa" d="M47.407 38.457l-.066-.064c.133-.088.291-.075.438-.106v.046c-.109.09-.248.084-.372.124z"/>
  <path fill="#77818b" d="M4.577 64.34c-.11-.123-.263-.02-.386-.077.164-.065.336-.032.513-.06-.011.103-.074.114-.127.136z"/>
  <path fill="#758089" d="M27.612 64.262c-.103.05-.239-.036-.327.078l-.204-.127c.232.002.383-.005.531.049z"/>
  <path fill="#919ba4" d="M48.024 43.855l.002.05c-.152.004-.307.036-.448-.05l.136-.06.31.06z"/>
  <path fill="#a9b0b8" d="M58.064 73.547c.09-.085.032-.194.047-.292.105.1.092.245.053.343-.043.106-.073-.013-.1-.05z"/>
  <path fill="#97a0aa" d="M47.778 38.333l.001-.046.497-.008a.404.404 0 0 0 0 .049l-.498.005z"/>
  <path fill="#d0dfd6" d="M69.32 37.036c-.027-.05-.074-.06-.124-.062.055-.063.14-.142.202-.088.083.071-.02.113-.078.15z"/>
  <path fill="#929ca5" d="M48.782 43.854l-.072-.06.185-.067.126.058c-.066.07-.155.062-.24.07z"/>
  <path fill="#e8efeb" d="M66.656 36.416c-.025-.05-.07-.057-.12-.057.046-.067.128-.137.184-.096.065.047-.01.112-.064.153z"/>
  <path fill="#949da7" d="M6.246 75.536c-.056.028-.058.083-.07.135-.073-.083-.056-.175-.049-.278.084.03.1.088.12.143zM10.332 75.536c-.057.028-.06.083-.07.135a.26.26 0 0 1-.036-.273c.071.025.086.083.106.138zM70.87 75.536c-.056.028-.058.083-.07.135a.26.26 0 0 1-.035-.273c.07.025.085.083.105.138z"/>
  <path fill="#5b6772" d="M90.05 64.316l-.135-.054a.372.372 0 0 1 .276-.032c-.028.068-.089.07-.14.086z"/>
  <path fill="#9ea7b0" d="M96.747 72.934c-.056.011-.112.02-.142.078-.038-.03-.1-.082-.068-.11.065-.052.146-.022.21.032zM82.572 72.934c-.056.011-.113.02-.143.078-.038-.03-.1-.082-.067-.11.064-.052.146-.022.21.032zM67.035 72.934c-.056.011-.112.02-.142.078-.039-.03-.101-.082-.068-.11.065-.052.145-.022.21.032zM25.438 72.934c-.056.011-.112.02-.142.078-.039-.03-.1-.082-.068-.11.065-.052.146-.022.21.032z"/>
</svg>
