<?xml version="1.0" encoding="UTF-8" standalone="no"?>
<svg
   xmlns:dc="http://purl.org/dc/elements/1.1/"
   xmlns:cc="http://creativecommons.org/ns#"
   xmlns:rdf="http://www.w3.org/1999/02/22-rdf-syntax-ns#"
   xmlns:svg="http://www.w3.org/2000/svg"
   xmlns="http://www.w3.org/2000/svg"
   xmlns:sodipodi="http://sodipodi.sourceforge.net/DTD/sodipodi-0.dtd"
   xmlns:inkscape="http://www.inkscape.org/namespaces/inkscape"
   viewBox="0 0 100 56"
   version="1.1"
   id="svg180"
   sodipodi:docname="heritage-oaks-logo.svg"
   width="100"
   height="56"
   inkscape:version="0.92.3 (2405546, 2018-03-11)">
  <metadata
     id="metadata186">
    <rdf:RDF>
      <cc:Work
         rdf:about="">
        <dc:format>image/svg+xml</dc:format>
        <dc:type
           rdf:resource="http://purl.org/dc/dcmitype/StillImage" />
        <dc:title></dc:title>
      </cc:Work>
    </rdf:RDF>
  </metadata>
  <defs
     id="defs184" />
  <sodipodi:namedview
     pagecolor="#ffffff"
     bordercolor="#666666"
     borderopacity="1"
     objecttolerance="10"
     gridtolerance="10"
     guidetolerance="10"
     inkscape:pageopacity="0"
     inkscape:pageshadow="2"
     inkscape:window-width="2560"
     inkscape:window-height="1373"
     id="namedview182"
     showgrid="false"
     inkscape:zoom="5.805"
     inkscape:cx="47.072354"
     inkscape:cy="47.122809"
     inkscape:window-x="0"
     inkscape:window-y="0"
     inkscape:window-maximized="1"
     inkscape:current-layer="svg180" />
  <g
     id="g219"
     transform="translate(0,12.877692)">
    <path
       style="fill:#788490"
       inkscape:connector-curvature="0"
       id="path118"
       d="m 64.554,41.157 c -0.26,-0.188 -0.403,-0.454 -0.507,-0.75 -0.081,-0.232 -0.166,-0.465 -0.324,-0.661 A 0.347,0.347 0 0 0 63.335,39.62 c -0.15,0.046 -0.08,0.194 -0.077,0.291 0.011,0.387 -0.063,0.78 0.074,1.17 h -0.46 a 59.57,59.57 0 0 0 0.003,-3.187 c 0.306,-0.025 0.659,-0.038 1.013,0.035 0.487,0.1 0.77,0.36 0.788,0.74 0.02,0.384 -0.222,0.681 -0.684,0.84 -0.065,0.023 -0.131,0.043 -0.219,0.07 0.57,0.415 0.695,1.145 1.214,1.579 h -0.433 z m -1.3,-2.416 c 0,0.184 0.005,0.369 -10e-4,0.553 -0.005,0.127 0.037,0.179 0.174,0.185 0.46,0.02 0.8,-0.255 0.852,-0.706 0.048,-0.414 -0.185,-0.675 -0.664,-0.759 -0.243,-0.042 -0.403,-0.01 -0.363,0.296 0.017,0.142 0.002,0.287 0.002,0.43 z" />
    <path
       style="fill:#798490"
       inkscape:connector-curvature="0"
       id="path120"
       d="m 89.128,41.157 c -0.252,-0.414 -0.61,-0.74 -0.923,-1.102 -0.516,-0.596 -1.043,-1.18 -1.622,-1.832 0.041,1.001 -0.06,1.929 0.107,2.86 h -0.341 c 0.097,-0.093 0.117,-0.212 0.117,-0.34 l 0.008,-2.474 c 0,-0.123 0.003,-0.25 -0.126,-0.36 0.277,-0.046 0.473,0.003 0.648,0.207 0.592,0.688 1.198,1.362 1.8,2.04 0.092,0.105 0.19,0.204 0.305,0.326 0,-0.802 0.021,-1.56 -0.013,-2.316 -0.01,-0.226 0.04,-0.27 0.225,-0.26 -0.124,1.08 -0.035,2.167 -0.062,3.251 z m -36.397,0 c -0.252,-0.414 -0.61,-0.74 -0.924,-1.102 -0.515,-0.596 -1.042,-1.18 -1.619,-1.83 0.03,1 -0.043,1.926 0.089,2.858 h -0.325 c 0.097,-0.093 0.117,-0.212 0.117,-0.34 l 0.008,-2.474 c 0,-0.123 0.003,-0.25 -0.126,-0.36 0.277,-0.046 0.473,0.003 0.648,0.207 0.592,0.688 1.198,1.362 1.8,2.04 0.092,0.105 0.19,0.204 0.305,0.326 0,-0.802 0.006,-1.56 -0.004,-2.317 -0.003,-0.222 -0.025,-0.222 0.216,-0.261 -0.124,1.082 -0.035,2.169 -0.061,3.253 z" />
    <path
       style="fill:#788490"
       inkscape:connector-curvature="0"
       id="path122"
       d="m 56.445,41.157 c -0.032,-0.084 -0.119,-0.072 -0.18,-0.096 -0.83,-0.31 -1.274,-0.98 -1.172,-1.772 0.106,-0.816 0.733,-1.395 1.618,-1.461 0.514,-0.04 1.004,0.054 1.4,0.427 -0.015,0.098 0.043,0.207 -0.047,0.292 -0.348,-0.49 -0.894,-0.693 -1.488,-0.553 -0.56,0.132 -0.94,0.57 -1.045,1.202 -0.148,0.895 0.348,1.666 1.172,1.806 0.357,0.061 0.694,-0.025 1.015,-0.181 0.062,-0.03 0.147,-0.055 0.144,-0.143 -0.012,-0.315 0.065,-0.635 -0.053,-0.944 0.163,0.033 0.342,-0.057 0.494,0.061 -0.015,0.07 -0.039,0.139 -0.042,0.208 -0.03,0.617 -0.211,0.854 -0.8,1.06 -0.071,0.025 -0.171,-0.004 -0.212,0.094 z m -38.873,0 c -0.03,-0.082 -0.115,-0.086 -0.178,-0.104 -0.332,-0.093 -0.447,-0.32 -0.424,-0.68 0.079,0.106 0.135,0.19 0.2,0.266 0.277,0.325 0.718,0.457 1.087,0.329 a 0.646,0.646 0 0 0 0.227,-1.113 1.631,1.631 0 0 0 -0.423,-0.251 C 17.845,39.505 17.626,39.412 17.419,39.3 17.129,39.144 16.977,38.898 17.023,38.562 a 0.785,0.785 0 0 1 0.56,-0.675 c 0.325,-0.11 0.65,-0.092 0.972,0.022 0.198,0.07 0.316,0.188 0.25,0.442 -0.192,-0.138 -0.336,-0.329 -0.58,-0.37 a 1.016,1.016 0 0 0 -0.487,0.012 c -0.215,0.066 -0.367,0.192 -0.406,0.42 -0.04,0.24 0.053,0.435 0.265,0.545 0.32,0.165 0.66,0.291 0.973,0.468 0.623,0.354 0.66,1.145 0.082,1.525 -0.125,0.082 -0.266,0.139 -0.4,0.207 h -0.68 z m -7.24,-0.621 c 0.298,0.349 0.644,0.577 1.131,0.442 a 0.65,0.65 0 0 0 0.495,-0.533 c 0.058,-0.28 -0.069,-0.483 -0.281,-0.636 -0.133,-0.095 -0.286,-0.16 -0.433,-0.234 -0.1,-0.05 -0.208,-0.09 -0.31,-0.136 -0.558,-0.258 -0.752,-0.556 -0.639,-0.978 0.116,-0.433 0.517,-0.68 1.067,-0.641 0.152,0.01 0.304,0.05 0.451,0.094 0.204,0.062 0.31,0.193 0.24,0.442 -0.185,-0.151 -0.337,-0.332 -0.583,-0.378 a 0.976,0.976 0 0 0 -0.516,0.025 c -0.2,0.07 -0.338,0.2 -0.371,0.414 -0.035,0.226 0.054,0.4 0.243,0.529 0.24,0.164 0.52,0.246 0.782,0.364 0.4,0.18 0.714,0.434 0.698,0.918 -0.016,0.491 -0.315,0.758 -0.766,0.883 -0.015,0.004 -0.023,0.03 -0.035,0.046 h -0.68 c -0.095,-0.113 -0.247,-0.116 -0.364,-0.187 -0.118,-0.071 -0.22,-0.141 -0.2,-0.3 0.012,-0.05 0.014,-0.107 0.07,-0.134 z M 6.739,41.157 C 6.644,41.044 6.493,41.041 6.376,40.97 c -0.118,-0.071 -0.22,-0.141 -0.2,-0.3 0.012,-0.05 0.014,-0.106 0.07,-0.134 0.299,0.349 0.645,0.577 1.132,0.442 A 0.65,0.65 0 0 0 7.873,40.445 C 7.931,40.165 7.804,39.962 7.592,39.809 7.459,39.714 7.306,39.649 7.159,39.575 7.058,39.525 6.951,39.485 6.849,39.439 6.291,39.181 6.097,38.883 6.209,38.461 c 0.117,-0.433 0.517,-0.68 1.068,-0.641 0.152,0.01 0.307,0.045 0.45,0.095 0.237,0.083 0.256,0.13 0.245,0.444 -0.188,-0.155 -0.34,-0.335 -0.586,-0.382 a 0.976,0.976 0 0 0 -0.517,0.025 c -0.2,0.07 -0.338,0.2 -0.37,0.414 -0.036,0.226 0.053,0.401 0.242,0.53 0.241,0.163 0.52,0.245 0.782,0.363 0.4,0.181 0.714,0.434 0.698,0.918 -0.015,0.492 -0.315,0.758 -0.766,0.884 -0.015,0.004 -0.023,0.03 -0.035,0.046 H 6.74 Z M 70.87,40.536 c 0.299,0.349 0.645,0.577 1.132,0.442 a 0.65,0.65 0 0 0 0.495,-0.533 c 0.058,-0.28 -0.069,-0.483 -0.282,-0.636 -0.132,-0.095 -0.285,-0.16 -0.432,-0.234 -0.101,-0.05 -0.208,-0.09 -0.31,-0.136 -0.558,-0.258 -0.752,-0.556 -0.64,-0.978 0.117,-0.433 0.517,-0.68 1.068,-0.641 0.152,0.01 0.304,0.05 0.45,0.094 0.205,0.062 0.311,0.193 0.24,0.442 -0.184,-0.151 -0.336,-0.332 -0.582,-0.378 a 0.976,0.976 0 0 0 -0.516,0.025 c -0.2,0.07 -0.338,0.2 -0.371,0.414 -0.036,0.226 0.054,0.4 0.242,0.529 0.241,0.164 0.52,0.246 0.782,0.364 0.401,0.18 0.714,0.434 0.699,0.918 -0.016,0.491 -0.315,0.758 -0.767,0.883 -0.014,0.004 -0.023,0.03 -0.034,0.046 h -0.681 c -0.095,-0.113 -0.246,-0.116 -0.364,-0.187 -0.117,-0.071 -0.22,-0.141 -0.199,-0.3 0.012,-0.05 0.014,-0.107 0.07,-0.134 z m 21.972,0.621 c -0.032,-0.084 -0.119,-0.072 -0.181,-0.096 -0.831,-0.31 -1.276,-0.984 -1.17,-1.778 0.11,-0.818 0.744,-1.388 1.629,-1.46 0.355,-0.028 0.696,0.037 1.024,0.177 0.276,0.12 0.457,0.297 0.404,0.63 -0.665,-0.758 -1.502,-0.9 -2.129,-0.363 -0.61,0.524 -0.686,1.638 -0.155,2.277 0.555,0.666 1.397,0.632 2.284,-0.099 0.053,0.205 -0.081,0.302 -0.213,0.398 -0.208,0.15 -0.46,0.205 -0.688,0.314 z" />
    <path
       style="fill:#798591"
       inkscape:connector-curvature="0"
       id="path124"
       d="m 43.94,41.157 c -0.496,-1.093 -0.971,-2.197 -1.544,-3.26 0.184,0.02 0.393,0.042 0.69,-0.057 -0.15,0.156 -0.151,0.253 -0.101,0.36 0.366,0.792 0.73,1.587 1.094,2.38 0.124,-0.028 0.128,-0.137 0.16,-0.214 0.323,-0.788 0.755,-1.53 1,-2.351 0.054,-0.18 0.222,-0.033 0.306,-0.13 -0.566,1.075 -1.048,2.177 -1.542,3.272 z" />
    <path
       style="fill:#43515e"
       inkscape:connector-curvature="0"
       id="path126"
       d="m 48.068,-11.149 c 6.407,0 12.813,0.002 19.22,-0.007 0.293,0 0.37,0.062 0.369,0.365 -0.013,3.425 -0.012,6.85 0,10.274 0,0.282 -0.078,0.343 -0.341,0.33 -0.474,-0.022 -0.95,-0.018 -1.423,0 -0.226,0.008 -0.294,-0.046 -0.294,-0.284 0.008,-2.6 0.003,-5.2 0,-7.799 0,-0.216 -0.004,-0.433 0.002,-0.65 0.004,-0.131 -0.04,-0.192 -0.177,-0.18 -0.072,0.007 -0.145,10e-4 -0.217,10e-4 -11.348,0 -22.695,10e-4 -34.043,-0.006 -0.307,0 -0.411,0.054 -0.41,0.393 0.01,9.913 0.01,19.827 0,29.741 0,0.322 0.088,0.381 0.391,0.381 11.358,-0.008 22.716,-0.008 34.074,0.001 0.31,0 0.39,-0.068 0.389,-0.384 -0.014,-3.095 -0.009,-6.19 -0.008,-9.285 0,-0.42 0.003,-0.42 0.428,-0.42 0.423,0 0.847,0.023 1.268,-0.009 0.315,-0.024 0.36,0.09 0.36,0.375 -0.012,3.054 -0.007,6.107 -0.007,9.16 0,0.816 -0.01,1.63 0.005,2.445 0.004,0.23 -0.051,0.29 -0.286,0.29 -2.692,-0.01 -5.385,-0.006 -8.078,-0.006 -10.15,0 -20.302,-0.002 -30.453,0.008 -0.318,0 -0.379,-0.084 -0.378,-0.387 0.008,-11.316 0.008,-22.633 0,-33.95 0,-0.308 0.056,-0.407 0.39,-0.406 6.407,0.013 12.813,0.01 19.22,0.01 z m -0.01,33.61 c 6.034,0 12.07,-0.003 18.104,0.008 0.325,0 0.378,-0.092 0.377,-0.39 -0.01,-3.353 -0.007,-6.706 -0.007,-10.058 v -0.217 c 0.001,-0.077 -0.04,-0.098 -0.111,-0.114 -0.347,-0.072 -0.444,-0.002 -0.444,0.339 0,3.156 -0.002,6.313 0.006,9.47 0,0.23 -0.054,0.288 -0.287,0.288 -11.678,-0.006 -23.355,-0.006 -35.033,0 -0.236,0 -0.284,-0.065 -0.284,-0.29 0.006,-10.234 0.006,-20.467 0,-30.7 0,-0.245 0.077,-0.28 0.295,-0.28 11.667,0.005 23.334,0.005 35.001,0 0.234,0 0.31,0.046 0.309,0.298 -0.012,2.3 -0.007,4.6 -0.007,6.901 0,0.495 -0.001,0.99 0.002,1.485 0,0.077 -0.044,0.199 0.051,0.22 0.138,0.03 0.295,0.038 0.429,0.001 0.142,-0.04 0.07,-0.194 0.07,-0.294 0.004,-2.94 -10e-4,-5.88 0.01,-8.82 0.002,-0.292 -0.085,-0.347 -0.356,-0.347 -12.08,0.007 -24.16,0.007 -36.24,-10e-4 -0.298,0 -0.37,0.068 -0.369,0.367 0.009,10.594 0.009,21.19 0.002,31.783 0,0.273 0.055,0.358 0.347,0.357 6.045,-0.008 12.09,-0.006 18.135,-0.006 z" />
    <path
       style="fill:#77838f"
       inkscape:connector-curvature="0"
       id="path128"
       d="m 48.276,3.279 c 1.461,-0.02 2.638,1.106 2.65,2.568 0.003,0.302 0.105,0.346 0.367,0.342 a 89.941,89.941 0 0 1 2.63,0 c 0.218,0.003 0.301,-0.036 0.3,-0.282 -0.011,-2.682 -0.007,-5.363 -0.012,-8.044 a 6.9,6.9 0 0 0 -0.18,-1.655 c -0.216,-0.87 -0.746,-1.304 -1.647,-1.355 -0.061,-0.003 -0.123,-0.005 -0.185,-0.01 -0.045,-0.005 -0.074,-0.032 -0.079,-0.079 -0.007,-0.068 0.036,-0.089 0.093,-0.09 0.072,-0.003 0.144,-0.004 0.217,-0.004 h 6.466 c 0.02,0 0.042,-0.004 0.062,0.001 0.088,0.025 0.245,-0.067 0.256,0.077 0.012,0.157 -0.15,0.086 -0.238,0.103 -0.09,0.017 -0.186,0.011 -0.277,0.028 -0.855,0.162 -1.295,0.658 -1.442,1.655 a 8.521,8.521 0 0 0 -0.114,1.199 c -0.011,2.815 -0.008,5.63 -0.01,8.446 v 0.443 c 0.002,2.795 -0.005,5.59 0.012,8.384 0.003,0.542 0.048,1.09 0.208,1.62 0.247,0.817 0.742,1.21 1.59,1.263 0.095,0.006 0.278,-0.068 0.268,0.1 -0.01,0.15 -0.186,0.076 -0.284,0.076 -2.175,0.005 -4.351,0.005 -6.527,0 -0.093,0 -0.267,0.08 -0.27,-0.088 -0.004,-0.142 0.161,-0.083 0.251,-0.088 0.916,-0.056 1.434,-0.487 1.655,-1.385 0.122,-0.493 0.169,-0.997 0.17,-1.501 0.01,-2.712 0.005,-5.424 0.015,-8.136 0,-0.212 -0.069,-0.255 -0.263,-0.253 C 53.02,6.622 52.081,6.624 51.143,6.612 50.938,6.61 50.866,6.679 50.811,6.868 50.535,7.802 49.989,8.495 49.02,8.787 L 48.894,8.728 C 49.593,8.284 49.817,7.578 49.944,6.819 49.974,6.643 49.89,6.613 49.738,6.615 49.264,6.622 48.79,6.618 48.316,6.618 h -1.823 c -0.099,0 -0.226,-0.025 -0.19,0.149 0.187,0.873 0.486,1.668 1.41,2.03 l -0.136,0.06 C 46.528,8.73 45.64,7.94 45.382,6.868 45.331,6.657 45.247,6.613 45.052,6.614 43.908,6.622 42.764,6.625 41.619,6.612 41.377,6.609 41.334,6.688 41.335,6.909 c 0.008,2.6 0.005,5.198 0.008,7.797 0,0.598 0.033,1.194 0.174,1.78 0.221,0.92 0.73,1.347 1.67,1.4 0.061,0.004 0.124,0.005 0.185,0.014 0.045,0.007 0.067,0.044 0.065,0.09 0,0.049 -0.033,0.072 -0.078,0.074 a 3.902,3.902 0 0 1 -0.216,0.005 h -6.528 c -0.041,0 -0.083,0.004 -0.124,-10e-4 -0.064,-0.008 -0.163,0.027 -0.156,-0.09 0.006,-0.103 0.099,-0.082 0.167,-0.088 0.113,-0.01 0.227,-0.007 0.339,-0.026 0.865,-0.154 1.312,-0.665 1.462,-1.672 0.078,-0.52 0.121,-1.045 0.121,-1.57 0.003,-5.497 0.004,-10.994 0,-16.49 -10e-4,-0.608 -0.038,-1.215 -0.17,-1.812 -0.222,-0.99 -0.693,-1.393 -1.708,-1.47 -0.08,-0.006 -0.218,0.045 -0.207,-0.105 0.008,-0.12 0.13,-0.071 0.201,-0.071 2.228,-0.003 4.455,-0.003 6.683,0 0.072,0 0.181,-0.05 0.208,0.065 0.025,0.105 -0.068,0.1 -0.139,0.111 -1.353,0.212 -1.794,0.713 -1.896,2.091 -0.049,0.66 -0.056,1.318 -0.057,1.978 0,2.33 0.003,4.661 -0.005,6.992 0,0.213 0.046,0.281 0.268,0.28 1.134,-0.012 2.27,-0.012 3.403,0 0.221,0.001 0.293,-0.046 0.305,-0.284 0.061,-1.216 0.905,-2.245 2.029,-2.512 l 0.066,0.064 c -1.019,0.495 -1.196,1.783 -1.174,2.575 0.004,0.128 0.07,0.151 0.178,0.151 h 3.395 c 0.121,0 0.194,-0.022 0.182,-0.17 C 49.929,5.285 49.764,4.592 49.312,3.997 49.048,3.651 48.715,3.404 48.274,3.329 Z" />
    <path
       style="fill:#c0d4c8"
       inkscape:connector-curvature="0"
       id="path130"
       d="M 57.134,6.622 V 6.178 c 0.639,0.002 1.277,-0.003 1.915,0.01 0.226,0.003 0.33,-0.074 0.306,-0.304 -0.002,-0.02 0,-0.041 0,-0.062 -0.005,-0.146 -0.011,-0.336 0.107,-0.396 0.134,-0.069 0.202,0.13 0.299,0.21 0.13,0.11 0.228,0.255 0.448,0.194 0.21,-0.059 0.218,-0.227 0.258,-0.379 0.107,-0.406 0.244,-0.808 0.187,-1.24 -0.01,-0.07 -0.013,-0.173 0.052,-0.198 0.266,-0.106 0.42,-0.31 0.55,-0.55 0.048,-0.09 0.13,-0.048 0.157,0.037 0.06,0.192 0.18,0.355 0.175,0.58 -0.008,0.365 -0.05,0.737 0.1,1.096 0.137,0.328 0.557,0.477 0.806,0.224 0.492,-0.498 0.942,-1.033 1.025,-1.774 0.002,-0.02 0.024,-0.046 0.017,-0.057 -0.235,-0.38 0.126,-0.625 0.208,-0.933 0.039,-0.144 0.105,-0.173 0.206,-0.056 0.321,0.37 0.493,0.364 0.994,-0.063 0.248,-0.21 0.471,-0.431 0.776,-0.56 0.316,-0.135 0.56,-0.378 0.817,-0.598 0.049,0 0.094,0.008 0.12,0.057 -0.19,0.243 -0.388,0.478 -0.56,0.73 -0.081,0.117 -0.244,0.254 0.004,0.405 0.12,0.073 -0.03,0.155 -0.081,0.21 -0.298,0.313 -0.58,0.635 -0.796,1.014 -0.114,0.202 -0.197,0.402 -0.032,0.595 0.188,0.22 0.442,0.281 0.724,0.195 0.585,-0.18 1.065,-0.535 1.483,-0.96 0.568,-0.58 1.191,-1.095 1.797,-1.631 0.05,0.003 0.097,0.011 0.124,0.061 -0.25,0.363 -0.446,0.757 -0.6,1.167 -0.078,0.209 0.11,0.365 0.359,0.304 0.29,-0.071 0.563,-0.196 0.826,-0.34 0.105,-0.056 0.2,-0.186 0.345,-0.035 0.054,0.057 0.155,-0.024 0.224,-0.064 a 0.935,0.935 0 0 1 0.551,-0.15 c -0.154,0.277 -0.422,0.41 -0.639,0.596 -0.124,0.107 -0.247,0.216 -0.366,0.329 -0.083,0.078 -0.13,0.196 -0.048,0.275 0.223,0.216 0.02,0.236 -0.118,0.285 -0.377,0.134 -0.795,0.109 -1.162,0.289 -0.082,0.04 -0.172,0.068 -0.254,0.11 -0.12,0.06 -0.275,0.13 -0.264,0.271 0.014,0.165 0.178,0.26 0.329,0.286 0.398,0.068 0.775,0.3 1.205,0.16 0.077,-0.025 0.175,0.023 0.255,0.085 C 69.861,5.798 69.671,5.857 69.492,5.93 69.262,6.022 69.034,6.115 68.836,6.267 68.69,6.378 68.526,6.33 68.371,6.31 67.687,6.222 67.003,6.159 66.313,6.183 66.09,6.19 65.879,6.115 65.643,6.16 c -0.334,0.064 -0.495,0.279 -0.557,0.545 -0.06,0.247 0.07,0.475 0.31,0.616 0.507,0.296 1.014,0.59 1.575,0.77 0.167,0.053 0.28,0.074 0.277,0.329 -0.004,0.33 0.334,0.494 0.55,0.708 0.125,0.124 0.407,0.224 0.307,0.395 C 68.003,9.699 67.781,9.493 67.614,9.446 67.337,9.371 67.062,9.288 66.783,9.221 66.686,9.198 66.533,9.186 66.512,9.301 66.457,9.591 66.312,9.449 66.195,9.381 65.929,9.228 65.675,9.055 65.409,8.902 64.924,8.622 64.588,8.81 64.552,9.367 64.542,9.508 64.508,9.647 64.476,9.842 64.123,9.525 63.726,9.289 63.637,8.829 63.512,8.176 63.14,7.66 62.651,7.293 62.337,7.056 61.917,6.789 61.428,6.963 c -0.195,0.069 -0.234,0.148 -0.167,0.338 0.176,0.496 0.415,0.964 0.668,1.422 0.187,0.336 0.092,0.696 0.142,1.042 0.018,0.126 -0.07,0.137 -0.154,0.057 C 61.843,9.752 61.766,9.678 61.714,9.592 61.628,9.451 61.484,9.312 61.361,9.314 60.971,9.32 60.928,9.015 60.775,8.784 60.448,8.291 60.165,7.766 59.71,7.364 59.507,7.184 59.271,7.017 59.221,6.71 59.201,6.582 59.077,6.618 58.991,6.618 58.371,6.617 57.753,6.62 57.134,6.622 Z" />
    <path
       style="fill:#43515e"
       inkscape:connector-curvature="0"
       id="path132"
       d="m 4.577,29.34 a 0.573,0.573 0 0 0 -0.12,0.374 c -10e-4,0.65 -10e-4,1.3 -0.012,1.95 -0.002,0.156 0.035,0.213 0.204,0.212 1.073,-0.008 2.146,-0.008 3.218,0 0.175,0 0.232,-0.047 0.228,-0.225 -0.016,-0.619 -0.013,-1.238 -0.022,-1.856 -0.003,-0.22 -0.01,-0.44 -0.257,-0.564 0.406,0.041 0.794,0.041 1.2,0 -0.224,0.127 -0.235,0.329 -0.239,0.542 a 133.418,133.418 0 0 0 0,4.704 c 0.004,0.203 0.028,0.388 0.275,0.531 H 7.83 c 0.302,-0.281 0.246,-0.615 0.252,-0.93 0.01,-0.578 0,-1.156 0.013,-1.733 0.004,-0.178 -0.053,-0.227 -0.228,-0.226 a 246.64,246.64 0 0 1 -3.218,0 c -0.17,-10e-4 -0.205,0.06 -0.203,0.214 0.01,0.722 0.013,1.444 0.011,2.166 0,0.198 0.069,0.356 0.246,0.505 H 3.51 c 0.29,-0.212 0.263,-0.479 0.263,-0.74 -0.002,-1.476 -0.004,-2.95 0,-4.426 0,-0.234 -0.006,-0.455 -0.289,-0.615 l 0.707,0.041 c 0.122,0.056 0.276,-0.047 0.385,0.075 z m 66.187,5.812 c -1.78,-0.004 -3.106,-1.301 -3.105,-3.035 0.002,-1.746 1.336,-3.034 3.141,-3.03 1.778,0.003 3.101,1.299 3.1,3.035 0,1.748 -1.333,3.035 -3.136,3.03 z m 2.396,-3.041 c 0,-0.46 -0.073,-0.906 -0.262,-1.325 -0.404,-0.898 -1.096,-1.423 -2.09,-1.433 -0.976,-0.01 -1.697,0.47 -2.108,1.355 -0.437,0.938 -0.435,1.904 0.007,2.84 0.41,0.868 1.125,1.343 2.088,1.337 0.965,-0.005 1.655,-0.497 2.07,-1.366 0.214,-0.444 0.293,-0.918 0.295,-1.408 z m -51.438,0.142 c 0.47,0.254 0.723,0.631 0.965,1.015 0.247,0.392 0.473,0.797 0.726,1.184 0.141,0.216 0.31,0.42 0.62,0.407 -0.316,0.281 -0.863,0.223 -1.206,-0.124 -0.229,-0.232 -0.363,-0.522 -0.49,-0.816 -0.17,-0.397 -0.302,-0.81 -0.52,-1.186 -0.174,-0.3 -0.413,-0.477 -0.782,-0.437 -0.117,0.013 -0.188,0.024 -0.185,0.17 0.012,0.7 0.015,1.402 0.023,2.103 0.002,0.17 0.079,0.309 0.244,0.434 h -1.23 c 0.295,-0.194 0.29,-0.435 0.289,-0.68 -0.003,-1.525 -0.003,-3.05 -0.003,-4.576 0,-0.185 0.01,-0.373 -0.258,-0.517 0.83,-0.01 1.57,-0.09 2.296,0.113 1.049,0.294 1.493,1.228 0.98,2.06 -0.228,0.369 -0.58,0.575 -0.98,0.711 -0.143,0.048 -0.293,0.083 -0.49,0.139 z m -0.857,-1.491 h -0.013 v 0.68 c 0,0.67 0,0.67 0.678,0.562 0.736,-0.117 1.127,-0.564 1.14,-1.304 0.013,-0.7 -0.297,-1.054 -1.062,-1.2 -0.161,-0.032 -0.328,-0.03 -0.49,-0.052 -0.185,-0.026 -0.263,0.034 -0.256,0.232 0.012,0.36 0.003,0.721 0.003,1.082 z M 90.05,29.316 c -0.804,0.439 -1.412,1.123 -2.114,1.69 -0.184,0.148 -0.355,0.313 -0.537,0.462 -0.104,0.085 -0.105,0.142 -0.009,0.24 0.923,0.937 1.838,1.883 2.765,2.817 0.15,0.15 0.345,0.256 0.52,0.383 -0.431,0.095 -0.862,0.074 -1.294,0.008 0.116,-0.127 0.043,-0.23 -0.047,-0.322 -0.806,-0.827 -1.615,-1.65 -2.418,-2.479 -0.094,-0.096 -0.152,-0.09 -0.253,-0.01 -0.207,0.166 -0.348,0.332 -0.33,0.637 0.035,0.554 0.017,1.112 0.016,1.669 0,0.22 0.012,0.432 0.28,0.593 h -1.24 c 0.29,-0.196 0.277,-0.439 0.277,-0.683 -0.003,-1.494 -0.002,-2.99 -0.002,-4.484 0,-0.229 0.019,-0.462 -0.247,-0.6 0.406,0.025 0.782,0.044 1.257,-0.046 -0.278,0.182 -0.328,0.375 -0.326,0.601 0.007,0.752 0.003,1.504 0.003,2.257 0.094,0.026 0.128,-0.056 0.175,-0.1 0.795,-0.734 1.59,-1.468 2.378,-2.21 0.129,-0.12 0.312,-0.223 0.28,-0.447 -0.016,-0.128 0.073,-0.063 0.113,-0.062 0.206,0.007 0.411,0.02 0.617,0.032 z m -37.634,3.238 c -0.206,0.298 -0.12,0.637 -0.109,0.955 0.012,0.319 -0.099,0.545 -0.314,0.762 -1.034,1.05 -2.868,1.186 -4.16,0.298 -1.184,-0.813 -1.603,-2.407 -0.985,-3.744 0.558,-1.205 1.992,-1.926 3.41,-1.716 0.389,0.057 0.764,0.155 1.123,0.322 0.502,0.233 0.851,0.549 0.695,1.175 -0.046,0.017 -0.067,-0.032 -0.092,-0.077 -0.527,-0.931 -1.38,-1.244 -2.38,-1.168 -1.052,0.08 -1.745,0.688 -2.08,1.678 -0.311,0.922 -0.256,1.834 0.242,2.684 0.714,1.217 2.509,1.57 3.672,0.741 0.058,-0.041 0.125,-0.074 0.124,-0.161 -0.005,-0.526 -0.008,-1.052 -0.016,-1.577 0,-0.037 -0.036,-0.073 -0.056,-0.108 0.3,-0.138 0.618,-0.022 0.926,-0.064 z m 44.456,-2.25 c -0.561,-0.822 -1.125,-1.083 -1.871,-0.914 -0.406,0.092 -0.697,0.32 -0.786,0.738 -0.09,0.425 0.063,0.769 0.418,1.021 0.289,0.205 0.619,0.326 0.937,0.47 0.253,0.114 0.514,0.217 0.754,0.353 0.702,0.396 1.018,1.026 0.897,1.747 -0.115,0.687 -0.637,1.2 -1.385,1.37 a 2.579,2.579 0 0 1 -1.283,-0.042 c -0.812,-0.228 -0.978,-0.436 -1.021,-1.307 0.144,0.035 0.162,0.174 0.224,0.264 0.486,0.71 1.247,1.04 1.968,0.84 0.468,-0.129 0.776,-0.43 0.876,-0.904 0.099,-0.47 -0.03,-0.877 -0.416,-1.188 -0.31,-0.249 -0.673,-0.396 -1.03,-0.556 -0.29,-0.132 -0.584,-0.255 -0.854,-0.43 -0.465,-0.299 -0.704,-0.713 -0.648,-1.274 0.055,-0.555 0.315,-0.982 0.83,-1.213 0.648,-0.291 1.3,-0.243 1.954,0.005 0.472,0.178 0.411,0.57 0.436,1.02 z m -58.869,4.608 c 0.181,-0.116 0.285,-0.29 0.38,-0.476 0.839,-1.63 1.612,-3.29 2.37,-4.958 0.044,-0.095 0.042,-0.258 0.181,-0.256 0.138,10e-4 0.135,0.163 0.18,0.259 a 146.053,146.053 0 0 0 2.215,4.656 c 0.15,0.3 0.28,0.615 0.57,0.843 h -1.393 c 0.337,-0.155 0.298,-0.335 0.204,-0.535 a 45.276,45.276 0 0 1 -0.513,-1.124 c -0.053,-0.12 -0.126,-0.163 -0.26,-0.162 -0.814,0.006 -1.629,0.006 -2.444,0 -0.141,0 -0.225,0.037 -0.282,0.177 -0.161,0.4 -0.336,0.796 -0.506,1.193 -0.056,0.132 -0.069,0.259 0.04,0.373 -0.246,0.103 -0.493,0.084 -0.742,0.01 z m 2.69,-4.8 -1.293,2.812 c 0.833,0 1.623,-0.002 2.413,0.002 0.166,10e-4 0.162,-0.058 0.104,-0.182 -0.405,-0.864 -0.805,-1.729 -1.224,-2.632 z m 35.936,4.8 c 0.181,-0.116 0.285,-0.29 0.38,-0.476 0.839,-1.63 1.612,-3.29 2.37,-4.958 0.044,-0.095 0.042,-0.258 0.182,-0.256 0.137,10e-4 0.134,0.163 0.178,0.259 a 143.388,143.388 0 0 0 2.216,4.655 c 0.15,0.3 0.276,0.618 0.57,0.844 h -1.393 c 0.338,-0.155 0.299,-0.335 0.204,-0.535 a 45.28,45.28 0 0 1 -0.513,-1.124 c -0.053,-0.12 -0.126,-0.163 -0.259,-0.162 -0.815,0.006 -1.63,0.006 -2.445,0 -0.141,0 -0.225,0.037 -0.282,0.177 -0.16,0.4 -0.336,0.796 -0.506,1.193 -0.056,0.132 -0.069,0.259 0.04,0.373 -0.246,0.103 -0.494,0.084 -0.742,0.01 z m 1.402,-2.002 h 2.586 L 79.318,30.112 Z M 15.644,32.311 c -0.5,-0.219 -1.032,-0.157 -1.554,-0.175 -0.48,-0.017 -0.481,-0.006 -0.48,0.483 0.002,0.63 0.004,1.258 0.008,1.887 10e-4,0.118 -0.033,0.258 0.166,0.26 0.826,0.008 1.651,0.01 2.445,-0.265 0.17,-0.059 0.33,-0.15 0.55,-0.252 -0.113,0.247 -0.204,0.436 -0.29,0.629 -0.058,0.133 -0.173,0.086 -0.268,0.087 -0.99,0.003 -1.98,0.002 -2.97,0.003 h -0.616 c 0.293,-0.143 0.3,-0.355 0.299,-0.578 a 1165.06,1165.06 0 0 1 0,-4.578 c 0,-0.222 0.002,-0.439 -0.245,-0.568 1.061,0.07 2.097,0.021 3.133,0.02 0.262,0 0.406,0.065 0.43,0.333 0.01,0.118 0.117,0.22 0.066,0.369 -0.76,-0.548 -1.632,-0.511 -2.498,-0.506 -0.172,10e-4 -0.202,0.079 -0.201,0.228 0.002,0.68 -0.005,1.36 -0.006,2.041 0,0.082 -0.043,0.207 0.113,0.201 0.644,-0.024 1.299,0.053 1.923,-0.185 a 0.556,0.556 0 0 1 -0.005,0.566 z m 43.454,0 c -0.5,-0.219 -1.032,-0.157 -1.553,-0.175 -0.48,-0.017 -0.482,-0.006 -0.48,0.483 0,0.63 0.003,1.258 0.007,1.887 10e-4,0.118 -0.033,0.258 0.166,0.26 0.826,0.008 1.651,0.01 2.445,-0.265 0.17,-0.059 0.329,-0.15 0.55,-0.252 -0.113,0.247 -0.204,0.436 -0.29,0.629 -0.058,0.133 -0.173,0.086 -0.267,0.087 -0.99,0.003 -1.98,0.002 -2.97,0.003 h -0.617 c 0.293,-0.143 0.3,-0.355 0.299,-0.578 -0.004,-1.526 -0.003,-3.052 0,-4.578 0,-0.222 0.002,-0.439 -0.244,-0.568 1.06,0.07 2.096,0.021 3.132,0.02 0.262,0 0.407,0.065 0.43,0.333 0.01,0.118 0.117,0.22 0.066,0.369 -0.76,-0.548 -1.632,-0.511 -2.498,-0.506 -0.172,10e-4 -0.202,0.079 -0.201,0.228 0.002,0.68 -0.005,1.36 -0.006,2.041 0,0.082 -0.043,0.207 0.113,0.201 0.644,-0.024 1.3,0.053 1.923,-0.185 a 0.558,0.558 0 0 1 -0.005,0.566 z m -24.605,2.688 h -1.252 c 0.32,-0.195 0.304,-0.442 0.304,-0.688 10e-4,-1.526 0,-3.052 0.012,-4.578 0.002,-0.225 -0.07,-0.28 -0.28,-0.265 -0.641,0.044 -1.268,0.134 -1.855,0.523 -0.001,-0.258 0.116,-0.442 0.16,-0.642 0.026,-0.11 0.134,-0.076 0.21,-0.076 1.392,-0.001 2.784,0 4.176,-0.003 0.137,0 0.23,0.014 0.259,0.181 0.027,0.16 0.096,0.312 0.145,0.464 -0.068,0.076 -0.117,0.016 -0.165,-0.014 -0.545,-0.341 -1.156,-0.404 -1.779,-0.434 -0.167,-0.008 -0.209,0.049 -0.208,0.208 0.008,1.609 0.01,3.217 0.01,4.825 0,0.21 0.08,0.37 0.263,0.499 z m -6.881,-5.737 0.77,-0.036 c -0.288,0.157 -0.291,0.38 -0.291,0.613 0.004,1.536 0.004,3.072 0,4.608 0,0.212 0.015,0.41 0.287,0.558 h -1.232 c 0.286,-0.23 0.266,-0.506 0.266,-0.776 l -0.004,-4.392 c 0,-0.176 0,-0.352 -0.123,-0.497 0.088,-0.114 0.224,-0.027 0.327,-0.078 z" />
    <path
       style="fill:#788490"
       inkscape:connector-curvature="0"
       id="path134"
       d="m 77.668,37.89 c 0.38,-0.015 0.8,-0.032 1.22,0.038 0.84,0.14 1.311,0.658 1.326,1.48 0.015,0.84 -0.495,1.466 -1.31,1.624 -0.418,0.081 -0.838,0.06 -1.234,0.06 A 62.42,62.42 0 0 0 77.668,37.89 Z m 0.38,1.596 c 0,0.422 -0.001,0.844 0.002,1.267 0,0.096 -0.034,0.22 0.13,0.226 0.5,0.016 0.996,-0.044 1.313,-0.47 0.414,-0.558 0.44,-1.197 0.153,-1.815 -0.263,-0.567 -0.799,-0.69 -1.374,-0.706 -0.177,-0.005 -0.231,0.058 -0.227,0.231 0.01,0.422 0.003,0.844 0.003,1.267 z m -48.723,1.606 a 62.22,62.22 0 0 0 0,-3.197 c 0.436,-0.036 0.923,-0.047 1.403,0.072 0.769,0.191 1.165,0.73 1.142,1.537 -0.022,0.79 -0.531,1.377 -1.312,1.528 -0.419,0.082 -0.839,0.06 -1.233,0.06 z m 0.38,-1.622 v 1.298 c 0,0.105 -0.013,0.21 0.146,0.213 0.49,0.01 0.974,-0.048 1.288,-0.46 0.422,-0.554 0.45,-1.192 0.17,-1.813 -0.265,-0.584 -0.81,-0.708 -1.396,-0.72 -0.162,-0.003 -0.215,0.055 -0.211,0.215 0.008,0.422 0.002,0.845 0.002,1.267 z" />
    <path
       style="fill:#798490"
       inkscape:connector-curvature="0"
       id="path136"
       d="m 96.747,37.934 1.39,0.004 c 0.295,0.002 0.295,0.002 0.323,0.364 -0.393,-0.264 -0.825,-0.25 -1.256,-0.252 -0.159,0 -0.22,0.052 -0.216,0.214 0.009,0.32 0.01,0.639 -0.001,0.958 -0.006,0.17 0.063,0.21 0.217,0.204 0.315,-0.01 0.631,0.01 0.938,-0.098 a 0.499,0.499 0 0 1 0.006,0.3 c -0.077,-0.023 -0.15,-0.05 -0.225,-0.065 -0.853,-0.162 -0.932,-0.096 -0.932,0.757 0,0.681 0,0.674 0.689,0.656 0.34,-0.008 0.66,-0.106 1.026,-0.21 -0.074,0.176 -0.076,0.333 -0.295,0.33 -0.617,-0.006 -1.233,-0.002 -1.802,-0.002 0.03,-1.038 0.032,-2.06 -0.003,-3.083 0.029,-0.056 0.085,-0.066 0.141,-0.077 z m -14.175,0 1.39,0.004 c 0.295,0.002 0.295,0.002 0.323,0.364 -0.393,-0.264 -0.826,-0.25 -1.257,-0.252 -0.158,0 -0.22,0.052 -0.216,0.214 0.01,0.32 0.011,0.639 0,0.958 -0.007,0.17 0.062,0.21 0.216,0.204 0.315,-0.01 0.632,0.01 0.938,-0.098 a 0.499,0.499 0 0 1 0.006,0.3 c -0.076,-0.023 -0.15,-0.05 -0.224,-0.065 -0.853,-0.162 -0.933,-0.096 -0.933,0.757 0,0.681 0,0.674 0.69,0.656 0.34,-0.008 0.659,-0.106 1.026,-0.21 -0.074,0.176 -0.076,0.333 -0.295,0.33 -0.617,-0.006 -1.234,-0.002 -1.803,-0.002 0.03,-1.038 0.033,-2.06 -0.003,-3.083 0.03,-0.056 0.086,-0.066 0.141,-0.077 z m -15.537,0 1.39,0.004 c 0.295,0.002 0.295,0.002 0.323,0.364 -0.393,-0.264 -0.825,-0.25 -1.257,-0.252 -0.158,0 -0.22,0.052 -0.216,0.214 0.01,0.32 0.011,0.639 0,0.958 -0.007,0.17 0.062,0.21 0.217,0.204 0.315,-0.01 0.631,0.01 0.938,-0.098 a 0.499,0.499 0 0 1 0.006,0.3 c -0.077,-0.023 -0.15,-0.05 -0.225,-0.065 -0.853,-0.162 -0.933,-0.096 -0.933,0.757 0,0.681 0,0.674 0.69,0.656 0.34,-0.008 0.66,-0.106 1.026,-0.21 -0.073,0.176 -0.075,0.333 -0.295,0.33 -0.617,-0.006 -1.233,-0.002 -1.802,-0.002 0.03,-1.038 0.033,-2.06 -0.003,-3.083 0.029,-0.056 0.085,-0.066 0.14,-0.077 z m -41.597,0 c 0.463,0.002 0.927,0.017 1.39,-10e-4 0.266,-0.011 0.346,0.099 0.326,0.372 -0.397,-0.267 -0.828,-0.253 -1.26,-0.255 -0.158,0 -0.22,0.052 -0.216,0.214 0.009,0.32 0.011,0.639 -0.001,0.958 -0.006,0.17 0.063,0.212 0.217,0.204 0.315,-0.015 0.633,0.019 0.936,-0.103 a 0.506,0.506 0 0 1 0.008,0.306 c -0.077,-0.023 -0.15,-0.051 -0.225,-0.065 -0.853,-0.162 -0.933,-0.097 -0.933,0.756 0,0.682 0,0.684 0.689,0.652 a 3.54,3.54 0 0 0 0.52,-0.064 c 0.156,-0.03 0.308,-0.085 0.507,-0.142 -0.074,0.177 -0.076,0.334 -0.295,0.332 -0.617,-0.007 -1.234,-0.003 -1.803,-0.003 0.03,-1.038 0.033,-2.06 -0.003,-3.083 0.03,-0.057 0.087,-0.067 0.143,-0.078 z" />
    <path
       style="fill:#788490"
       inkscape:connector-curvature="0"
       id="path138"
       d="M 4.51,41.108 3.953,41.109 C 3.967,40.759 3.76,40.489 3.625,40.192 3.575,40.084 3.473,40.105 3.383,40.105 c -0.39,0 -0.78,0.006 -1.17,-0.003 -0.144,-0.003 -0.236,0.036 -0.276,0.179 -0.072,0.263 -0.34,0.473 -0.21,0.81 H 1.294 c 0.396,-0.459 0.589,-1.03 0.852,-1.561 0.268,-0.54 0.505,-1.096 0.782,-1.702 0.148,0.32 0.269,0.588 0.395,0.853 0.317,0.668 0.645,1.332 0.951,2.005 0.068,0.15 0.24,0.237 0.237,0.422 z M 3.515,39.965 2.795,38.389 2.082,39.965 Z m 18.784,1.115 h -0.542 a 0.787,0.787 0 0 0 0.087,-0.409 c -0.003,-0.794 -0.007,-1.588 0.002,-2.382 0.003,-0.194 -0.06,-0.245 -0.247,-0.24 -0.322,0.012 -0.618,0.11 -0.919,0.249 0,-0.275 0.102,-0.374 0.37,-0.366 0.65,0.02 1.3,0.019 1.949,0 0.262,-0.007 0.378,0.081 0.377,0.366 A 2.15,2.15 0 0 0 22.463,38.05 c -0.179,-0.005 -0.256,0.033 -0.254,0.234 0.01,0.815 0.007,1.63 0.002,2.444 0,0.124 0.044,0.231 0.088,0.353 z" />
    <path
       style="fill:#798591"
       inkscape:connector-curvature="0"
       id="path140"
       d="m 36.889,37.892 a 0.778,0.778 0 0 0 -0.068,0.285 c 0.002,0.855 0.005,1.71 -0.004,2.564 -0.002,0.19 0.057,0.246 0.246,0.244 0.462,-0.003 0.92,-0.017 1.36,-0.252 -0.028,0.268 -0.127,0.379 -0.394,0.368 -0.544,-0.021 -1.09,-0.006 -1.604,-0.006 0.043,-1.067 0.034,-2.122 0.008,-3.199 0.105,0 0.278,0.061 0.456,-0.004 z m -22.433,0.005 c 0.118,0.016 0.288,0.046 0.399,-0.002 a 62.28,62.28 0 0 0 0.002,3.184 h -0.403 a 49.76,49.76 0 0 0 0.002,-3.182 z m 25.817,-0.002 a 0.898,0.898 0 0 0 0.396,0.002 60.49,60.49 0 0 0 0,3.181 h -0.402 a 56.44,56.44 0 0 0 0.006,-3.183 z m 7.057,3.185 c 0.107,-0.332 0.107,-2.871 -0.002,-3.194 0.178,0.038 0.347,0.034 0.457,0.013 a 58.381,58.381 0 0 0 0.005,3.18 z m 28.064,-10e-4 h -0.397 c 0.03,-1.057 0.026,-2.113 0.001,-3.18 0.113,0.022 0.283,0.023 0.396,0 a 62.134,62.134 0 0 0 0,3.18 z" />
    <path
       style="fill:#5f6b76"
       inkscape:connector-curvature="0"
       id="path142"
       d="m 89.381,34.916 c 0.432,0.067 0.863,0.088 1.293,-0.008 l 0.248,0.104 c -0.567,0 -1.048,0 -1.528,-0.003 -0.017,0 -0.037,-0.034 -0.05,-0.056 -0.002,-0.003 0.024,-0.024 0.037,-0.037 z" />
    <path
       style="fill:#76808a"
       inkscape:connector-curvature="0"
       id="path144"
       d="m 76.629,34.912 c 0.248,0.074 0.496,0.093 0.742,-0.011 l 0.206,0.116 c -0.384,0 -0.689,0.019 -0.99,-0.01 -0.098,-0.01 -0.014,-0.077 0.042,-0.095 z" />
    <path
       style="fill:#5b6773"
       inkscape:connector-curvature="0"
       id="path146"
       d="m 52.416,32.554 c -0.308,0.042 -0.625,-0.074 -0.925,0.064 l -0.156,-0.083 c 0.363,0.005 0.724,-0.097 1.08,0.019 z" />
    <path
       style="fill:#76808a"
       inkscape:connector-curvature="0"
       id="path148"
       d="m 38.003,34.912 c 0.249,0.074 0.496,0.093 0.742,-0.011 l 0.206,0.116 c -0.384,0 -0.689,0.019 -0.99,-0.01 -0.098,-0.01 -0.013,-0.077 0.042,-0.095 z" />
    <path
       style="fill:#5f6b76"
       inkscape:connector-curvature="0"
       id="path150"
       d="m 15.644,32.311 a 0.553,0.553 0 0 0 0.003,-0.567 l 0.123,-0.216 c 0,0.295 0.004,0.522 -0.002,0.748 -0.003,0.116 -0.057,0.116 -0.124,0.035 z m 43.454,0 a 0.553,0.553 0 0 0 0.003,-0.567 l 0.123,-0.216 c 0,0.295 0.004,0.522 -0.002,0.748 -0.003,0.116 -0.057,0.116 -0.124,0.035 z" />
    <path
       style="fill:#a5adb5"
       inkscape:connector-curvature="0"
       id="path152"
       d="m 48.782,8.854 c -0.246,0.108 -0.504,0.039 -0.756,0.05 l -0.001,-0.05 c 0.23,-0.004 0.46,-0.006 0.685,-0.06 z" />
    <path
       style="fill:#c1c7cc"
       inkscape:connector-curvature="0"
       id="path154"
       d="m 58.303,39.796 c -0.152,-0.119 -0.33,-0.028 -0.493,-0.062 0.177,-0.121 0.372,-0.053 0.556,-0.037 0.043,0.003 -0.028,0.07 -0.063,0.099 z" />
    <path
       style="fill:#98a1aa"
       inkscape:connector-curvature="0"
       id="path156"
       d="M 47.407,3.457 47.341,3.393 c 0.133,-0.088 0.291,-0.075 0.438,-0.106 v 0.046 c -0.109,0.09 -0.248,0.084 -0.372,0.124 z" />
    <path
       style="fill:#77818b"
       inkscape:connector-curvature="0"
       id="path158"
       d="M 4.577,29.34 C 4.467,29.217 4.314,29.32 4.191,29.263 4.355,29.198 4.527,29.231 4.704,29.203 4.693,29.306 4.63,29.317 4.577,29.339 Z" />
    <path
       style="fill:#758089"
       inkscape:connector-curvature="0"
       id="path160"
       d="m 27.612,29.262 c -0.103,0.05 -0.239,-0.036 -0.327,0.078 l -0.204,-0.127 c 0.232,0.002 0.383,-0.005 0.531,0.049 z" />
    <path
       style="fill:#919ba4"
       inkscape:connector-curvature="0"
       id="path162"
       d="m 48.024,8.855 0.002,0.05 c -0.152,0.004 -0.307,0.036 -0.448,-0.05 l 0.136,-0.06 z" />
    <path
       style="fill:#a9b0b8"
       inkscape:connector-curvature="0"
       id="path164"
       d="m 58.064,38.547 c 0.09,-0.085 0.032,-0.194 0.047,-0.292 0.105,0.1 0.092,0.245 0.053,0.343 -0.043,0.106 -0.073,-0.013 -0.1,-0.05 z" />
    <path
       style="fill:#97a0aa"
       inkscape:connector-curvature="0"
       id="path166"
       d="m 47.778,3.333 0.001,-0.046 0.497,-0.008 a 0.404,0.404 0 0 0 0,0.049 z" />
    <path
       style="fill:#d0dfd6"
       inkscape:connector-curvature="0"
       id="path168"
       d="m 69.32,2.036 c -0.027,-0.05 -0.074,-0.06 -0.124,-0.062 0.055,-0.063 0.14,-0.142 0.202,-0.088 0.083,0.071 -0.02,0.113 -0.078,0.15 z" />
    <path
       style="fill:#929ca5"
       inkscape:connector-curvature="0"
       id="path170"
       d="m 48.782,8.854 -0.072,-0.06 0.185,-0.067 0.126,0.058 c -0.066,0.07 -0.155,0.062 -0.24,0.07 z" />
    <path
       style="fill:#e8efeb"
       inkscape:connector-curvature="0"
       id="path172"
       d="M 66.656,1.416 C 66.631,1.366 66.586,1.359 66.536,1.359 66.582,1.292 66.664,1.222 66.72,1.263 66.785,1.31 66.71,1.375 66.656,1.416 Z" />
    <path
       style="fill:#949da7"
       inkscape:connector-curvature="0"
       id="path174"
       d="M 6.246,40.536 C 6.19,40.564 6.188,40.619 6.176,40.671 6.103,40.588 6.12,40.496 6.127,40.393 c 0.084,0.03 0.1,0.088 0.12,0.143 z m 4.086,0 c -0.057,0.028 -0.06,0.083 -0.07,0.135 a 0.26,0.26 0 0 1 -0.036,-0.273 c 0.071,0.025 0.086,0.083 0.106,0.138 z m 60.538,0 c -0.056,0.028 -0.058,0.083 -0.07,0.135 a 0.26,0.26 0 0 1 -0.035,-0.273 c 0.07,0.025 0.085,0.083 0.105,0.138 z" />
    <path
       style="fill:#5b6772"
       inkscape:connector-curvature="0"
       id="path176"
       d="m 90.05,29.316 -0.135,-0.054 a 0.372,0.372 0 0 1 0.276,-0.032 c -0.028,0.068 -0.089,0.07 -0.14,0.086 z" />
    <path
       style="fill:#9ea7b0"
       inkscape:connector-curvature="0"
       id="path178"
       d="m 96.747,37.934 c -0.056,0.011 -0.112,0.02 -0.142,0.078 -0.038,-0.03 -0.1,-0.082 -0.068,-0.11 0.065,-0.052 0.146,-0.022 0.21,0.032 z m -14.175,0 c -0.056,0.011 -0.113,0.02 -0.143,0.078 -0.038,-0.03 -0.1,-0.082 -0.067,-0.11 0.064,-0.052 0.146,-0.022 0.21,0.032 z m -15.537,0 c -0.056,0.011 -0.112,0.02 -0.142,0.078 -0.039,-0.03 -0.101,-0.082 -0.068,-0.11 0.065,-0.052 0.145,-0.022 0.21,0.032 z m -41.597,0 c -0.056,0.011 -0.112,0.02 -0.142,0.078 -0.039,-0.03 -0.1,-0.082 -0.068,-0.11 0.065,-0.052 0.146,-0.022 0.21,0.032 z" />
  </g>
</svg>
